<?xml version="1.0" encoding="utf-8"?>
<!-- Generator: Adobe Illustrator 27.1.0, SVG Export Plug-In . SVG Version: 6.00 Build 0)  -->
<svg version="1.1" xmlns="http://www.w3.org/2000/svg" xmlns:xlink="http://www.w3.org/1999/xlink" x="0px" y="0px"
	 viewBox="0 0 1025 635" style="enable-background:new 0 0 1025 635;" xml:space="preserve">
<style type="text/css">
	.st0{fill:#FFFFFF;}
	.st1{fill:#FF8819;}
	.st2{fill:#1AD3FF;}
	.st3{fill:#121212;}
</style>
<g id="Capa_7">
</g>
<g id="Capa_6">
</g>
<g id="Capa_3">
	<path d="M1014.41,295.37l-48.06-40.53V127.77c0-63.86-51.76-115.57-115.57-115.57H657.27c-2.1-2.12-4.48-4.08-7.13-5.86
		c-5.69-3.82-12.61-5.84-20-5.84c-10.15,0-19.81,3.91-26.48,10.72c-5.73,5.85-10.36,13.7-14.97,21.49
		c-51.52,87.3-102.89,174.7-154.22,262.12c-3.75,6.4-8.92,8.28-13,9.2l-5.99,1.33c-8.57,1.87-16.67,3.64-24.27,6.52
		c-47.18,17.88-79.64,67.89-77.17,118.91c0.42,8.56,1.43,16.95,2.81,25.36h-55.49c-20.35,0-36.82-16.46-36.82-36.79V214.62
		c0-20.22,16.47-36.69,36.82-36.69h145.32V12.2H174.22c-63.83,0-115.57,51.69-115.57,115.46v127.07l-48.08,40.62
		c-13.43,11.34-13.42,32.03,0.02,43.37l48.06,40.53v127.06c0,63.87,51.76,115.58,115.57,115.58h139.09
		c-0.05,0.12-0.09,0.23-0.13,0.35c-1.48,4.08-2.95,8.16-4.4,12.26l48.78-14.11l0.55-0.29c1.16-0.61,2.33-1.22,3.53-1.71
		c6.7-2.79,13.45-5.46,20.21-8.14c14.06-5.57,28.6-11.33,42.23-17.99c51.77-25.29,90.98-61.77,116.55-108.44
		c18.82-34.37,21.13-69.92,6.87-105.66c-2.58-6.46-4.65-14.46-0.5-24.86c23.86-59.78,47.61-119.6,71.32-179.43v4.06h145.32
		c20.35,0,36.82,16.47,36.82,36.8v204.74c0,20.22-16.47,36.68-36.82,36.68H618.32v165.74h232.46c63.83,0,115.57-51.7,115.57-115.47
		V379.36l48.08-40.62C1027.86,327.39,1027.85,306.7,1014.41,295.37z M519.37,469.72c-19.15,35.46-47.05,64.61-82.92,86.65
		c-1.35,0.83-2.58,1.14-3.47,1.36l-1.16,0.31c-0.76,0.22-1.53,0.32-2.3,0.32c-2.63,0-5.17-1.26-6.75-3.48
		c-2.05-2.86-2.06-6.71-0.03-9.58c23.56-33.39,36.39-64.85,40-98.32l-25.33-1.51c-7.25,54-39.08,92.61-66.47,120.51
		c-1.59,1.61-3.73,2.49-5.93,2.49c-0.77,0-1.54-0.11-2.3-0.33c-2.93-0.84-5.16-3.23-5.81-6.21l-0.23-0.92
		c-0.27-0.99-0.67-2.49-0.55-4.33c0.12-1.87,0.21-3.74,0.27-5.61c0.7-23.59-3.72-46.87-8.73-70.58l-1.63-7.55
		c-1.21-5.53-2.43-11.12-3.48-16.79c-2.22-11.99-3.69-24.32-2.68-37.11c3.75-47.43,38.84-84.53,85.34-90.23
		c3.66-0.44,7.38-0.67,11.08-0.67c42.08,0,79.58,28.29,91.2,68.8C534.67,421.96,531.93,446.45,519.37,469.72z M547.83,282.59
		l-18.76,47.26c-0.99,2.49-3.12,4.35-5.72,5c-0.66,0.16-1.33,0.24-1.99,0.24c-1.96,0-3.88-0.69-5.4-1.99
		c-14.29-12.22-29.8-20.64-47.42-25.75c-2.46-0.71-4.45-2.52-5.4-4.9c-0.94-2.38-0.74-5.06,0.56-7.27l23.9-40.64
		c1.53-2.61,4.3-4.09,7.16-4.09c1.16,0,2.34,0.24,3.45,0.76L543.57,272C547.59,273.84,549.45,278.49,547.83,282.59z M641.82,45.8
		c-5.97,14.77-11.84,29.57-17.71,44.37l-5.79,14.6l-53.21,134.21c-0.44,1.11-0.94,2.21-1.47,3.35l-0.63,1.36
		c-0.91,2.02-2.58,3.59-4.65,4.36c-0.94,0.36-1.93,0.53-2.92,0.53c-1.18,0-2.36-0.25-3.46-0.75l-39.65-18.17
		c-2.22-1.02-3.88-2.95-4.53-5.3c-0.66-2.35-0.26-4.86,1.11-6.88l1.51-2.18c0.75-1.08,1.43-2.03,2.02-3.04L617.75,33.38
		c0.19-0.31,0.38-0.6,0.57-0.88c3.85-5.66,8.69-6.54,11.3-6.54c2.24,0,4.47,0.59,6.63,1.76C638.72,29.07,646.44,34.35,641.82,45.8z"
		/>
</g>
</svg>
