<?xml version="1.0" encoding="utf-8"?>
<!-- Generator: Adobe Illustrator 27.1.0, SVG Export Plug-In . SVG Version: 6.00 Build 0)  -->
<svg version="1.1" id="Capa_1" xmlns="http://www.w3.org/2000/svg" xmlns:xlink="http://www.w3.org/1999/xlink" x="0px" y="0px"
	 viewBox="0 0 1080 1080" style="enable-background:new 0 0 1080 1080;" xml:space="preserve">
<style type="text/css">
	.st0{fill:#5EB319;}
	.st1{fill:#425E2C;}
</style>
<g>
	<path class="st0" d="M741.9,996.9c-3.7,7.3-7,14.8-9.8,22.5c-2.8-7.7-6.1-15.2-9.8-22.5c-13.5-26.5-32.9-50.1-56.8-68.6
		c-10.7-8.3-22.1-15.5-34.2-21.6c24.8-23.6,57.1-39.5,91.8-43.6c6.1-0.7,12.2-1.1,18.3-1.1c39.2,0,75.8,14.7,103.9,39.1
		c-20.3,8.6-39.3,20.5-56,35.1C769.4,953.8,753.4,974.2,741.9,996.9z"/>
	<path class="st0" d="M357.4,996.9c-3.7,7.3-7,14.8-9.8,22.5c-2.8-7.7-6.1-15.2-9.8-22.5c-13.5-26.5-32.9-50.1-56.8-68.6
		c-14.2-11.1-29.8-20.2-46.2-27.1c23.9-20.5,53.8-34.3,85.7-38c6.1-0.7,12.2-1.1,18.3-1.1c42,0,81.2,17,110,44.7
		c-15.8,7.9-30.6,17.9-44,29.6C384.9,953.8,369,974.2,357.4,996.9z"/>
	<path class="st0" d="M406.2,746.3v0.4c-0.2,17-7.1,32.8-18.2,44.8c-12.3,13.3-29.8,21.9-48.9,22.2h-1.1c-20.2,0-37-8.9-48.6-22.2
		c-10.7-12.3-16.9-28.4-17.2-44.8c-0.4-16.6,5.2-33.4,18.2-46.9c0,0,0,0,0,0c13.4-13.8,30.4-20,47.2-20c18.3,0,36.3,7.3,49.3,20
		C398.7,711.3,406.3,727.2,406.2,746.3z"/>
	<path class="st0" d="M693.1,699.9C693.2,699.8,693.2,699.8,693.1,699.9c13.4-13.8,30.4-20,47.2-20c18.2,0,36.3,7.3,49.3,20
		c11.7,11.5,19.2,27.4,19.2,46.4v0.4c-0.2,17-7.1,32.8-18.2,44.8c-12.3,13.3-29.8,21.9-48.9,22.2h-1.1c-20.2,0-37-8.9-48.5-22.2
		c-10.7-12.3-16.9-28.4-17.3-44.8C674.6,730.1,680.1,713.3,693.1,699.9z"/>
	<path class="st0" d="M444,242.3H336.6L227.8,539.5h97.8l14.7-44.9h99.1l14.7,44.9h98.2L444,242.3z M363,424.5l26.9-82.7l26.9,82.7
		H363z"/>
	<path class="st0" d="M736,447.3c-8.3,5.5-17.7,8.2-28.4,8.2c-15.7,0-28.1-5.9-37.1-17.7c-9.1-11.7-13.7-27.6-13.7-47.4
		c0-19.9,4.5-35.7,13.7-47.4c9.1-11.7,21.5-17.6,37.1-17.6c10.6,0,20.1,2.7,28.4,8.2c8.2,5.5,14.6,13.1,19.1,22.9h98.2
		c-4.2-23.5-12.7-44.1-25.4-61.7c-12.7-17.6-29.2-31.3-49.5-40.9c-20.3-9.7-43.3-14.5-69.1-14.5c-29.9,0-56,6.4-78.1,19.1
		c-22.1,12.7-39.1,30.6-51,53.5c-11.9,23-17.9,49.1-17.9,78.5c0,29.4,6,55.6,17.9,78.5c11.9,23,28.9,40.8,51,53.5
		c22.1,12.7,48.2,19.1,78.1,19.1c25.8,0,48.8-4.8,69.1-14.5c20.3-9.7,36.8-23.3,49.5-40.9c12.7-17.6,21.2-38.2,25.4-61.7h-98.2
		C750.6,434.3,744.2,441.9,736,447.3z"/>
	<path class="st1" d="M940.4,106.1H139.6c-25.9,0-46.9,21-46.9,46.9v500c0,25.9,21,46.9,46.9,46.9h96.6
		c5.2-11.7,12.4-22.5,21.5-31.9c21.2-21.9,49.7-33.9,80.1-33.9c30.7,0,60.6,12.4,82.2,34c9.3,9.4,16.8,20.2,22.1,31.9h196.7
		c5.2-11.7,12.4-22.5,21.5-31.9c21.2-21.9,49.6-33.9,80.1-33.9c30.7,0,60.6,12.4,82.2,34c9.3,9.4,16.8,20.2,22.1,31.9h95.7
		c25.9,0,46.9-21,46.9-46.9V153C987.3,127.1,966.3,106.1,940.4,106.1z M899.2,434c-5.5,29.9-16.7,56.6-33.3,79.6
		c-17.3,24-40,42.8-67.4,55.8c-26.5,12.6-56.5,19-89.2,19c-38.1,0-72.3-8.5-101.5-25.4c-4-2.3-7.8-4.7-11.6-7.3
		c-1.4,3.7-3.2,7.2-5.5,10.5c-8.8,12.5-23.1,20-38.4,20h-98.2c-20.3,0-38.2-13-44.5-32.3l-4.1-12.6h-31.1l-4.1,12.6
		c-6.3,19.3-24.3,32.3-44.5,32.3h-97.8c-15.3,0-29.6-7.5-38.4-20c-8.8-12.5-10.8-28.6-5.6-42.9l108.7-297.2
		c6.8-18.5,24.3-30.8,44-30.8H444c19.7,0,37.3,12.3,44,30.8l36.3,99.7c3.6-12.4,8.4-24.3,14.2-35.5c16-30.9,39.3-55.3,69.2-72.6
		c29.2-16.8,63.4-25.4,101.5-25.4c32.6,0,62.7,6.4,89.2,19c27.4,13,50,31.8,67.4,55.8c16.8,23.3,28.1,50.5,33.6,80.9
		c2.4,13.7-1.3,27.7-10.2,38.3c-1.1,1.4-2.4,2.7-3.7,3.9c9,8.5,14.6,20.6,14.6,34C900.2,427.7,899.8,430.9,899.2,434z"/>
	<path class="st0" d="M478.1,838.4c-5.5-14.9-6.1-31.6-0.6-46.9c2.9-8.3,7.7-16.1,14.4-23.1c13.4-13.8,30.4-20,47.2-20
		c27.3,0,54.2,16.4,64.3,43c2.7,7.1,4.2,15,4.2,23.4c0,8.2-1.6,16.1-4.5,23.4c-9.8,25.1-34.4,43.6-62.5,44h-1.1
		C509.5,882.4,487.2,862.9,478.1,838.4z"/>
	<path class="st0" d="M862.6,838.4c-5.5-14.9-6.2-31.6-0.6-46.9c2.9-8.2,7.7-16.1,14.4-23.1c13.4-13.8,30.4-20,47.2-20
		c27.3,0,54.2,16.4,64.3,43c2.7,7.1,4.2,15,4.2,23.4c0,8.2-1.6,16.1-4.5,23.4c-9.8,25.1-34.4,43.6-62.5,44h-1.1
		C894,882.4,871.6,862.9,862.6,838.4z"/>
	<path class="st0" d="M47.9,14.5h984.1c25.9,0,46.9,21,46.9,46.9V748c0,24-19.5,43.5-43.5,43.5h0c-4-18.8-12.7-36.1-25.6-50.5
		c14.5-8,24.3-23.4,24.3-41.1V106.1c0-25.9-21-46.9-46.9-46.9H92.7c-25.9,0-46.9,21-46.9,46.9v593.7c0,17.8,9.9,33.3,24.5,41.2
		c-12.7,14.6-21,32-24.7,50.4h-1.1c-24,0-43.5-19.5-43.5-43.5V61.4C1.1,35.5,22,14.5,47.9,14.5z"/>
	<path class="st0" d="M93,791.5c2.9-8.2,7.7-16.1,14.4-23.1c13.4-13.8,30.4-20,47.2-20c27.3,0,54.2,16.4,64.3,43
		c2.7,7.1,4.2,15,4.1,23.4c0,8.2-1.6,16.1-4.5,23.4c-9.7,25.1-34.4,43.6-62.5,44H155c-29.9,0-52.3-19.5-61.3-44
		C88.1,823.5,87.4,806.8,93,791.5z"/>
	<path class="st0" d="M296.5,1065.5H152.9c-58.7,0-117.1,0-140.6,0c-12.9,0-13.8-1.3-10.9-13.8c14.7-63.4,71.1-112.3,136-119.9
		c5.9-0.7,11.7-1,17.5-1c0.3,0,0.5,0,0.8,0c16.4,0,32.4,2.6,47.5,7.4c32.7,10.4,61.3,31.3,81.2,58.7c10,13.8,17.8,29.2,22.8,45.8
		c0.7,2.2,1.3,4.5,1.9,6.7C312.9,1064.6,312.4,1065.5,296.5,1065.5z"/>
	<path class="st0" d="M681,1065.5H537.4c-58.7,0-117.1,0-140.7,0c-12.8,0-13.8-1.3-10.9-13.8c0.7-3,1.5-6,2.4-8.9
		c5-16.6,12.8-32,22.9-45.8c16.8-23.1,40-41.6,66.3-53c14-6.1,29-10.3,44.4-12.1c0.3,0,0.6-0.1,0.9-0.1c5.9-0.6,11.6-1,17.4-1
		c5.7,0,11.3,0.3,16.9,0.9c15.9,1.7,31.2,5.9,45.5,12c26.5,11.5,49.5,30,66.3,53.2c10,13.8,17.8,29.2,22.8,45.8
		c0.7,2.2,1.3,4.5,1.9,6.7C697.4,1064.6,696.9,1065.5,681,1065.5z"/>
	<path class="st0" d="M1078,1049.5c3.8,15.2,3.3,16.1-12.5,16.1H921.9c-58.7,0-117.1,0-140.7,0c-12.8,0-13.8-1.3-10.9-13.8
		c0.7-3,1.5-6,2.4-8.9c5-16.6,12.8-32,22.9-45.8c19.9-27.3,48.6-48.2,81.2-58.7c9.6-3.1,19.4-5.2,29.5-6.4
		c6.1-0.7,12.2-1.1,18.3-1.1h0.3C997.1,930.8,1060.7,981,1078,1049.5z"/>
</g>
</svg>
