<?xml version="1.0" encoding="utf-8"?>
<!-- Generator: Adobe Illustrator 27.1.0, SVG Export Plug-In . SVG Version: 6.00 Build 0)  -->
<svg version="1.1" id="Capa_1" xmlns="http://www.w3.org/2000/svg" xmlns:xlink="http://www.w3.org/1999/xlink" x="0px" y="0px"
	 viewBox="0 0 1080 176.8" style="enable-background:new 0 0 1080 176.8;" xml:space="preserve">
<style type="text/css">
	.st0{fill:#5EB319;}
	.st1{fill:#425E2C;}
</style>
<g>
	<g>
		<path class="st0" d="M301.4,114.4h-35.6l-6.1,17.4h-14.6l30.5-85.1h16.1l30.5,85.1h-14.7L301.4,114.4z M297.5,103l-13.8-39.5
			L269.7,103H297.5z"/>
		<path class="st0" d="M343.1,46.8V101c0,6.4,1.7,11.3,5.1,14.6c3.4,3.3,8.1,4.9,14.1,4.9c6.1,0,10.9-1.6,14.2-4.9
			c3.4-3.3,5.1-8.1,5.1-14.6V46.8h13.9v53.9c0,6.9-1.5,12.8-4.5,17.6c-3,4.8-7.1,8.4-12.1,10.8c-5.1,2.4-10.6,3.5-16.8,3.5
			c-6.1,0-11.7-1.2-16.7-3.5c-5-2.4-9-5.9-11.9-10.8c-2.9-4.8-4.4-10.7-4.4-17.6V46.8H343.1z"/>
		<path class="st0" d="M421.5,120.5h28.7v11.3h-42.7v-85h13.9V120.5z"/>
		<path class="st0" d="M506.9,114.4h-35.6l-6.1,17.4h-14.6l30.5-85.1h16.1l30.5,85.1h-14.7L506.9,114.4z M503,103l-13.8-39.5
			L475.3,103H503z"/>
		<path class="st0" d="M534.9,65.8c3.5-6.6,8.6-11.8,15.1-15.5c6.5-3.7,14-5.6,22.5-5.6c10.8,0,19.8,2.9,27.1,8.6
			c7.3,5.7,12.1,13.6,14.2,23.4H588c-1.5-3.3-3.7-5.7-6.4-7.5c-2.7-1.7-5.9-2.6-9.5-2.6c-5.5,0-10,2-13.3,5.9c-3.3,4-5,9.2-5,15.8
			c0,6.7,1.7,12,5,16c3.3,4,7.7,5.9,13.3,5.9c3.6,0,6.7-0.9,9.5-2.6c2.7-1.7,4.9-4.2,6.4-7.5h25.8c-2.1,9.9-6.8,17.7-14.2,23.4
			c-7.3,5.7-16.4,8.6-27.1,8.6c-8.5,0-16-1.9-22.5-5.6c-6.5-3.7-11.6-8.9-15.1-15.5c-3.5-6.6-5.3-14.2-5.3-22.8
			C529.6,80,531.3,72.4,534.9,65.8z"/>
		<path class="st0" d="M638.2,126.9c-6.8-3.8-12.1-9-16.1-15.8c-4-6.7-5.9-14.3-5.9-22.8c0-8.5,2-16.1,5.9-22.8
			c4-6.7,9.3-12,16.1-15.7c6.8-3.7,14.2-5.6,22.3-5.6c8.2,0,15.6,1.9,22.3,5.6c6.7,3.8,12,9,16,15.7c3.9,6.7,5.9,14.3,5.9,22.8
			c0,8.5-2,16.1-5.9,22.8c-3.9,6.7-9.3,12-16,15.8c-6.8,3.8-14.2,5.7-22.3,5.7C652.3,132.6,644.9,130.7,638.2,126.9z M674.9,104.4
			c3.5-4,5.3-9.3,5.3-16c0-6.8-1.8-12.2-5.3-16.2c-3.5-4-8.4-5.9-14.5-5.9c-6.2,0-11,2-14.6,5.9c-3.5,4-5.3,9.4-5.3,16.2
			c0,6.8,1.8,12.1,5.3,16.1c3.5,4,8.4,5.9,14.6,5.9C666.5,110.4,671.4,108.4,674.9,104.4z"/>
		<path class="st0" d="M789.1,131.8h-24l-31.9-48.2v48.2h-24V45.6h24l31.9,48.8V45.6h24V131.8z"/>
		<path class="st0" d="M861.6,45.6v19.1h-23v67.1h-24V64.6h-22.7V45.6H861.6z"/>
		<path class="st0" d="M908.1,131.8L890.9,100h-2.6v31.8h-24V45.6h37.8c6.9,0,12.8,1.2,17.6,3.6c4.8,2.4,8.4,5.7,10.9,9.9
			c2.4,4.2,3.7,8.9,3.7,14.1c0,5.9-1.6,11-4.8,15.5c-3.2,4.4-7.9,7.6-14.1,9.5l19.4,33.6H908.1z M888.4,83.6h11.9
			c3.3,0,5.7-0.8,7.3-2.3c1.6-1.5,2.4-3.8,2.4-6.7c0-2.8-0.8-5-2.5-6.5c-1.7-1.6-4.1-2.4-7.3-2.4h-11.9V83.6z"/>
		<path class="st0" d="M958.2,126.9c-6.8-3.8-12.1-9-16.1-15.8c-4-6.7-5.9-14.3-5.9-22.8c0-8.5,2-16.1,5.9-22.8
			c4-6.7,9.3-12,16.1-15.7c6.8-3.7,14.2-5.6,22.3-5.6c8.2,0,15.6,1.9,22.3,5.6c6.7,3.8,12,9,16,15.7c3.9,6.7,5.9,14.3,5.9,22.8
			c0,8.5-2,16.1-5.9,22.8c-3.9,6.7-9.3,12-16,15.8c-6.8,3.8-14.2,5.7-22.3,5.7C972.4,132.6,965,130.7,958.2,126.9z M994.9,104.4
			c3.5-4,5.3-9.3,5.3-16c0-6.8-1.8-12.2-5.3-16.2c-3.5-4-8.4-5.9-14.5-5.9c-6.2,0-11,2-14.6,5.9c-3.5,4-5.3,9.4-5.3,16.2
			c0,6.8,1.8,12.1,5.3,16.1c3.5,4,8.4,5.9,14.6,5.9C986.6,110.4,991.4,108.4,994.9,104.4z"/>
		<path class="st0" d="M1053.2,113.4h26.8v18.3h-50.8V45.6h24V113.4z"/>
	</g>
	<g>
		<path class="st0" d="M124.8,165.3c-0.6,1.2-1.2,2.5-1.6,3.8c-0.5-1.3-1-2.6-1.6-3.8c-2.3-4.5-5.5-8.4-9.6-11.5
			c-1.8-1.4-3.7-2.6-5.7-3.6c4.2-4,9.6-6.6,15.4-7.3c1-0.1,2.1-0.2,3.1-0.2c6.6,0,12.7,2.5,17.5,6.6c-3.4,1.5-6.6,3.5-9.4,5.9
			C129.5,158,126.8,161.5,124.8,165.3z"/>
		<path class="st0" d="M60.1,165.3c-0.6,1.2-1.2,2.5-1.6,3.8c-0.5-1.3-1-2.6-1.7-3.8c-2.3-4.5-5.5-8.4-9.5-11.5
			c-2.4-1.9-5-3.4-7.8-4.6c4-3.5,9-5.8,14.4-6.4c1-0.1,2.1-0.2,3.1-0.2c7.1,0,13.7,2.9,18.5,7.5c-2.7,1.3-5.2,3-7.4,5
			C64.8,158,62.1,161.5,60.1,165.3z"/>
		<path class="st0" d="M68.3,123.1L68.3,123.1c0,2.9-1.2,5.6-3.1,7.6c-2.1,2.2-5,3.7-8.2,3.7h-0.2c-3.4,0-6.2-1.5-8.2-3.7
			c-1.8-2.1-2.8-4.8-2.9-7.5c-0.1-2.8,0.9-5.6,3.1-7.9c0,0,0,0,0,0c2.3-2.3,5.1-3.4,7.9-3.4c3.1,0,6.1,1.2,8.3,3.4
			C67.1,117.2,68.4,119.9,68.3,123.1z"/>
		<path class="st0" d="M116.6,115.3C116.6,115.3,116.6,115.3,116.6,115.3c2.3-2.3,5.1-3.4,7.9-3.4c3.1,0,6.1,1.2,8.3,3.4
			c2,1.9,3.2,4.6,3.2,7.8v0.1c0,2.9-1.2,5.5-3.1,7.5c-2.1,2.2-5,3.7-8.2,3.7h-0.2c-3.4,0-6.2-1.5-8.2-3.7c-1.8-2.1-2.8-4.8-2.9-7.5
			C113.5,120.4,114.4,117.6,116.6,115.3z"/>
		<path class="st0" d="M74.7,38.3H56.6l-18.3,50h16.5l2.5-7.6h16.7l2.5,7.6h16.5L74.7,38.3z M61.1,69l4.5-13.9L70.1,69H61.1z"/>
		<path class="st0" d="M123.8,72.8c-1.4,0.9-3,1.4-4.8,1.4c-2.6,0-4.7-1-6.2-3c-1.5-2-2.3-4.6-2.3-8c0-3.3,0.8-6,2.3-8
			c1.5-2,3.6-3,6.2-3c1.8,0,3.4,0.5,4.8,1.4c1.4,0.9,2.5,2.2,3.2,3.9h16.5c-0.7-4-2.1-7.4-4.3-10.4c-2.1-3-4.9-5.3-8.3-6.9
			c-3.4-1.6-7.3-2.4-11.6-2.4c-5,0-9.4,1.1-13.1,3.2c-3.7,2.1-6.6,5.1-8.6,9c-2,3.9-3,8.3-3,13.2c0,4.9,1,9.3,3,13.2
			c2,3.9,4.9,6.9,8.6,9c3.7,2.1,8.1,3.2,13.1,3.2c4.3,0,8.2-0.8,11.6-2.4c3.4-1.6,6.2-3.9,8.3-6.9c2.1-3,3.6-6.4,4.3-10.4H127
			C126.3,70.6,125.2,71.9,123.8,72.8z"/>
		<path class="st1" d="M158.2,15.4H23.5c-4.4,0-7.9,3.5-7.9,7.9v84.1c0,4.4,3.5,7.9,7.9,7.9h16.2c0.9-2,2.1-3.8,3.6-5.4
			c3.6-3.7,8.4-5.7,13.5-5.7c5.2,0,10.2,2.1,13.8,5.7c1.6,1.6,2.8,3.4,3.7,5.4h33.1c0.9-2,2.1-3.8,3.6-5.4c3.6-3.7,8.4-5.7,13.5-5.7
			c5.2,0,10.2,2.1,13.8,5.7c1.6,1.6,2.8,3.4,3.7,5.4h16.1c4.4,0,7.9-3.5,7.9-7.9V23.3C166.1,18.9,162.6,15.4,158.2,15.4z
			 M151.3,70.6c-0.9,5-2.8,9.5-5.6,13.4c-2.9,4-6.7,7.2-11.3,9.4c-4.5,2.1-9.5,3.2-15,3.2c-6.4,0-12.2-1.4-17.1-4.3
			c-0.7-0.4-1.3-0.8-1.9-1.2c-0.2,0.6-0.5,1.2-0.9,1.8c-1.5,2.1-3.9,3.4-6.5,3.4H76.4c-3.4,0-6.4-2.2-7.5-5.4l-0.7-2.1H63l-0.7,2.1
			c-1.1,3.2-4.1,5.4-7.5,5.4H38.3c-2.6,0-5-1.3-6.5-3.4c-1.5-2.1-1.8-4.8-0.9-7.2l18.3-50c1.1-3.1,4.1-5.2,7.4-5.2h18.1
			c3.3,0,6.3,2.1,7.4,5.2l6.1,16.8c0.6-2.1,1.4-4.1,2.4-6c2.7-5.2,6.6-9.3,11.6-12.2c4.9-2.8,10.7-4.3,17.1-4.3
			c5.5,0,10.5,1.1,15,3.2c4.6,2.2,8.4,5.4,11.3,9.4c2.8,3.9,4.7,8.5,5.6,13.6c0.4,2.3-0.2,4.7-1.7,6.5c-0.2,0.2-0.4,0.4-0.6,0.7
			c1.5,1.4,2.5,3.5,2.5,5.7C151.5,69.5,151.4,70.1,151.3,70.6z"/>
		<path class="st0" d="M80.4,138.6c-0.9-2.5-1-5.3-0.1-7.9c0.5-1.4,1.3-2.7,2.4-3.9c2.3-2.3,5.1-3.4,7.9-3.4c4.6,0,9.1,2.8,10.8,7.2
			c0.5,1.2,0.7,2.5,0.7,3.9c0,1.4-0.3,2.7-0.8,3.9c-1.6,4.2-5.8,7.3-10.5,7.4h-0.2C85.7,146,82,142.7,80.4,138.6z"/>
		<path class="st0" d="M145.1,138.6c-0.9-2.5-1-5.3-0.1-7.9c0.5-1.4,1.3-2.7,2.4-3.9c2.3-2.3,5.1-3.4,7.9-3.4
			c4.6,0,9.1,2.8,10.8,7.2c0.5,1.2,0.7,2.5,0.7,3.9c0,1.4-0.3,2.7-0.8,3.9c-1.6,4.2-5.8,7.3-10.5,7.4h-0.2
			C150.4,146,146.7,142.7,145.1,138.6z"/>
		<path class="st0" d="M8.1,0h165.6c4.4,0,7.9,3.5,7.9,7.9v115.5c0,4-3.3,7.3-7.3,7.3l0,0c-0.7-3.2-2.1-6.1-4.3-8.5
			c2.4-1.3,4.1-3.9,4.1-6.9V15.4c0-4.4-3.5-7.9-7.9-7.9H15.6c-4.4,0-7.9,3.5-7.9,7.9v99.9c0,3,1.7,5.6,4.1,6.9
			c-2.1,2.5-3.5,5.4-4.2,8.5H7.5c-4,0-7.3-3.3-7.3-7.3V7.9C0.2,3.5,3.7,0,8.1,0z"/>
		<path class="st0" d="M15.6,130.7c0.5-1.4,1.3-2.7,2.4-3.9c2.2-2.3,5.1-3.4,7.9-3.4c4.6,0,9.1,2.8,10.8,7.2
			c0.5,1.2,0.7,2.5,0.7,3.9c0,1.4-0.3,2.7-0.8,3.9c-1.6,4.2-5.8,7.3-10.5,7.4h-0.2c-5,0-8.8-3.3-10.3-7.4
			C14.8,136.1,14.7,133.3,15.6,130.7z"/>
		<path class="st0" d="M49.9,176.8H25.7c-9.9,0-19.7,0-23.7,0c-2.2,0-2.3-0.2-1.8-2.3c2.5-10.7,12-18.9,22.9-20.2
			c1-0.1,2-0.2,2.9-0.2c0,0,0.1,0,0.1,0c2.8,0,5.5,0.4,8,1.2c5.5,1.8,10.3,5.3,13.7,9.9c1.7,2.3,3,4.9,3.8,7.7
			c0.1,0.4,0.2,0.8,0.3,1.1C52.6,176.7,52.6,176.8,49.9,176.8z"/>
		<path class="st0" d="M114.6,176.8H90.4c-9.9,0-19.7,0-23.7,0c-2.2,0-2.3-0.2-1.8-2.3c0.1-0.5,0.3-1,0.4-1.5
			c0.8-2.8,2.2-5.4,3.9-7.7c2.8-3.9,6.7-7,11.2-8.9c2.4-1,4.9-1.7,7.5-2c0,0,0.1,0,0.1,0c1-0.1,2-0.2,2.9-0.2c1,0,1.9,0.1,2.8,0.2
			c2.7,0.3,5.2,1,7.7,2c4.5,1.9,8.3,5,11.2,8.9c1.7,2.3,3,4.9,3.8,7.7c0.1,0.4,0.2,0.8,0.3,1.1C117.3,176.7,117.2,176.8,114.6,176.8
			z"/>
		<path class="st0" d="M181.4,174.1c0.6,2.6,0.6,2.7-2.1,2.7h-24.2c-9.9,0-19.7,0-23.7,0c-2.2,0-2.3-0.2-1.8-2.3
			c0.1-0.5,0.3-1,0.4-1.5c0.8-2.8,2.2-5.4,3.9-7.7c3.4-4.6,8.2-8.1,13.7-9.9c1.6-0.5,3.3-0.9,5-1.1c1-0.1,2.1-0.2,3.1-0.2h0
			C167.8,154.2,178.5,162.6,181.4,174.1z"/>
	</g>
</g>
</svg>
