<?xml version="1.0" encoding="utf-8"?>
<!-- Generator: Adobe Illustrator 27.1.0, SVG Export Plug-In . SVG Version: 6.00 Build 0)  -->
<svg version="1.1" id="Capa_1" xmlns="http://www.w3.org/2000/svg" xmlns:xlink="http://www.w3.org/1999/xlink" x="0px" y="0px"
	 viewBox="0 0 1080 1080" style="enable-background:new 0 0 1080 1080;" xml:space="preserve">
<style type="text/css">
	.st0{fill:#5EB319;}
	.st1{fill:#425E2C;}
</style>
<g>
	<g>
		<path class="st0" d="M72.8,981.7h-46l-7.9,22.5H0L39.4,894h20.9l39.4,110.1h-19L72.8,981.7z M67.7,967l-17.9-51.1l-18,51.1H67.7z"
			/>
		<path class="st0" d="M126.7,894.2v70.1c0,8.3,2.2,14.6,6.6,18.8c4.4,4.2,10.5,6.3,18.3,6.3c7.9,0,14.1-2.1,18.4-6.3
			c4.4-4.2,6.6-10.5,6.6-18.8v-70.1h18V964c0,9-2,16.6-5.9,22.8c-3.9,6.2-9.1,10.9-15.7,13.9c-6.5,3.1-13.8,4.6-21.7,4.6
			c-7.9,0-15.1-1.5-21.6-4.6c-6.5-3.1-11.6-7.7-15.4-13.9c-3.8-6.2-5.7-13.8-5.7-22.8v-69.8H126.7z"/>
		<path class="st0" d="M228.1,989.6h37.2v14.6h-55.2V894.2h18V989.6z"/>
		<path class="st0" d="M338.7,981.7h-46l-7.9,22.5h-18.8L305.3,894h20.9l39.4,110.1h-19L338.7,981.7z M333.6,967l-17.9-51.1
			l-18,51.1H333.6z"/>
		<path class="st0" d="M374.8,918.8c4.6-8.6,11.1-15.3,19.5-20.1c8.4-4.8,18.1-7.2,29.1-7.2c13.9,0,25.6,3.7,35.1,11.2
			c9.5,7.4,15.6,17.5,18.4,30.3h-33.4c-2-4.2-4.8-7.4-8.3-9.7c-3.5-2.2-7.6-3.3-12.3-3.3c-7.2,0-12.9,2.6-17.2,7.7
			c-4.3,5.1-6.4,11.9-6.4,20.5c0,8.6,2.1,15.5,6.4,20.6c4.3,5.1,10,7.7,17.2,7.7c4.6,0,8.7-1.1,12.3-3.3c3.5-2.2,6.3-5.4,8.3-9.6
			H477c-2.7,12.8-8.9,22.9-18.4,30.3c-9.5,7.4-21.2,11.2-35.1,11.2c-11,0-20.7-2.4-29.1-7.2c-8.4-4.8-15-11.5-19.5-20.1
			c-4.6-8.6-6.9-18.4-6.9-29.5C368,937.2,370.3,927.4,374.8,918.8z"/>
		<path class="st0" d="M508.4,997.9c-8.8-4.9-15.7-11.7-20.8-20.4c-5.1-8.7-7.7-18.5-7.7-29.5c0-11,2.6-20.8,7.7-29.5
			c5.1-8.7,12-15.5,20.8-20.3c8.8-4.9,18.4-7.3,28.8-7.3c10.5,0,20.2,2.4,28.9,7.3c8.7,4.9,15.6,11.6,20.6,20.3
			c5.1,8.7,7.6,18.5,7.6,29.5c0,11-2.5,20.8-7.6,29.5c-5.1,8.7-12,15.5-20.7,20.4c-8.8,4.9-18.4,7.4-28.8,7.4
			S517.2,1002.8,508.4,997.9z M556,968.7c4.6-5.2,6.9-12.1,6.9-20.7c0-8.9-2.3-15.8-6.9-21c-4.6-5.1-10.8-7.7-18.7-7.7
			c-8,0-14.3,2.6-18.8,7.7c-4.5,5.1-6.8,12.1-6.8,21c0,8.8,2.3,15.7,6.8,20.8c4.5,5.1,10.8,7.7,18.8,7.7
			C545.1,976.5,551.4,973.9,556,968.7z"/>
		<path class="st0" d="M703.7,1004.1h-31l-41.3-62.3v62.3h-31V892.6h31l41.3,63.1v-63.1h31V1004.1z"/>
		<path class="st0" d="M797.5,892.6v24.7h-29.7v86.8h-31v-86.8h-29.4v-24.7H797.5z"/>
		<path class="st0" d="M857.6,1004.1L835.4,963h-3.3v41.1h-31V892.6H850c9,0,16.6,1.6,22.8,4.7c6.2,3.1,10.9,7.4,14.1,12.8
			c3.2,5.4,4.7,11.5,4.7,18.3c0,7.6-2.1,14.3-6.2,20c-4.2,5.7-10.3,9.8-18.3,12.3l25.2,43.5H857.6z M832.1,941.8h15.3
			c4.2,0,7.4-1,9.5-3c2.1-2,3.2-4.9,3.2-8.7c0-3.6-1.1-6.4-3.2-8.5c-2.2-2.1-5.3-3.1-9.4-3.1h-15.3V941.8z"/>
		<path class="st0" d="M922.4,997.9c-8.8-4.9-15.7-11.7-20.8-20.4c-5.1-8.7-7.7-18.5-7.7-29.5c0-11,2.6-20.8,7.7-29.5
			c5.1-8.7,12-15.5,20.8-20.3c8.8-4.9,18.4-7.3,28.8-7.3c10.5,0,20.2,2.4,28.9,7.3c8.7,4.9,15.6,11.6,20.6,20.3
			c5.1,8.7,7.6,18.5,7.6,29.5c0,11-2.5,20.8-7.6,29.5c-5.1,8.7-12,15.5-20.7,20.4c-8.8,4.9-18.4,7.4-28.8,7.4
			C940.8,1005.3,931.2,1002.8,922.4,997.9z M970,968.7c4.6-5.2,6.9-12.1,6.9-20.7c0-8.9-2.3-15.8-6.9-21c-4.6-5.1-10.8-7.7-18.7-7.7
			c-8,0-14.3,2.6-18.8,7.7c-4.5,5.1-6.8,12.1-6.8,21c0,8.8,2.3,15.7,6.8,20.8c4.5,5.1,10.8,7.7,18.8,7.7
			C959.1,976.5,965.4,973.9,970,968.7z"/>
		<path class="st0" d="M1045.4,980.4h34.6v23.7h-65.7V892.6h31V980.4z"/>
	</g>
	<g>
		<path class="st0" d="M674.6,729.7c-2.5,4.9-4.7,9.9-6.5,15c-1.9-5.1-4-10.1-6.5-15c-9-17.6-21.9-33.4-37.9-45.8
			c-7.1-5.5-14.8-10.4-22.8-14.4c16.5-15.7,38-26.3,61.2-29c4.1-0.5,8.2-0.7,12.2-0.7c26.1,0,50.5,9.8,69.3,26.1
			c-13.5,5.7-26.2,13.7-37.3,23.4C693,700.9,682.3,714.6,674.6,729.7z"/>
		<path class="st0" d="M418.3,729.7c-2.5,4.9-4.7,9.9-6.5,15c-1.9-5.1-4.1-10.2-6.5-15c-9-17.6-21.9-33.4-37.8-45.8
			c-9.5-7.4-19.9-13.4-30.8-18.1c15.9-13.7,35.8-22.9,57.1-25.3c4.1-0.5,8.2-0.7,12.2-0.7c28,0,54.1,11.3,73.3,29.8
			c-10.5,5.3-20.4,11.9-29.3,19.7C436.6,700.9,426,714.6,418.3,729.7z"/>
		<path class="st0" d="M450.8,562.6v0.3c-0.1,11.3-4.7,21.9-12.1,29.9c-8.2,8.9-19.9,14.6-32.6,14.8h-0.7
			c-13.5,0-24.7-5.9-32.4-14.8c-7.1-8.2-11.2-18.9-11.5-29.9c-0.3-11.1,3.5-22.3,12.1-31.2c0,0,0,0,0,0c8.9-9.2,20.2-13.3,31.5-13.3
			c12.2,0,24.2,4.9,32.8,13.4C445.8,539.3,450.8,549.9,450.8,562.6z"/>
		<path class="st0" d="M642.1,531.7C642.1,531.6,642.1,531.6,642.1,531.7c8.9-9.2,20.3-13.4,31.5-13.4c12.2,0,24.2,4.9,32.8,13.4
			c7.8,7.7,12.8,18.3,12.8,31v0.3c-0.1,11.3-4.7,21.9-12.1,29.9c-8.2,8.9-19.9,14.6-32.6,14.8h-0.7c-13.5,0-24.7-5.9-32.4-14.8
			c-7.1-8.2-11.3-18.9-11.5-29.9C629.7,551.8,633.4,540.6,642.1,531.7z"/>
		<path class="st0" d="M476,226.6h-71.6l-72.5,198.2h65.2l9.8-29.9h66.1l9.8,29.9h65.5L476,226.6z M422,348.1l17.9-55.1l17.9,55.1
			H422z"/>
		<path class="st0" d="M670.7,363.3c-5.5,3.6-11.8,5.5-18.9,5.5c-10.5,0-18.7-3.9-24.8-11.8c-6.1-7.8-9.1-18.4-9.1-31.6
			c0-13.2,3-23.8,9.1-31.6c6.1-7.8,14.3-11.8,24.8-11.8c7.1,0,13.4,1.8,18.9,5.5c5.5,3.6,9.7,8.7,12.7,15.3h65.5
			c-2.8-15.7-8.5-29.4-16.9-41.1c-8.5-11.8-19.5-20.9-33-27.3c-13.5-6.4-28.9-9.7-46-9.7c-20,0-37.3,4.2-52.1,12.7
			c-14.7,8.5-26.1,20.4-34,35.7c-7.9,15.3-11.9,32.8-11.9,52.4c0,19.6,4,37,11.9,52.3c7.9,15.3,19.3,27.2,34,35.7
			c14.7,8.5,32.1,12.7,52.1,12.7c17.2,0,32.5-3.2,46-9.7c13.5-6.4,24.5-15.5,33-27.3c8.5-11.8,14.1-25.5,16.9-41.1h-65.5
			C680.4,354.6,676.1,359.7,670.7,363.3z"/>
		<path class="st1" d="M806.9,135.8H273c-17.3,0-31.2,14-31.2,31.2v333.3c0,17.3,14,31.2,31.2,31.2h64.4c3.4-7.8,8.2-15,14.4-21.3
			c14.1-14.6,33.1-22.6,53.4-22.6c20.5,0,40.4,8.3,54.8,22.6c6.2,6.2,11.2,13.4,14.7,21.3h131.2c3.4-7.8,8.2-15,14.4-21.3
			c14.1-14.6,33.1-22.6,53.4-22.6c20.5,0,40.4,8.3,54.8,22.6c6.2,6.2,11.2,13.4,14.8,21.3h63.8c17.3,0,31.2-14,31.2-31.2V167.1
			C838.2,149.8,824.2,135.8,806.9,135.8z M779.5,354.4c-3.7,19.9-11.2,37.8-22.2,53.1c-11.6,16-26.7,28.5-44.9,37.2
			c-17.7,8.4-37.7,12.7-59.5,12.7c-25.4,0-48.2-5.7-67.6-16.9c-2.6-1.5-5.2-3.2-7.7-4.8c-0.9,2.5-2.1,4.8-3.7,7
			C568,451,558.4,456,548.2,456h-65.5c-13.5,0-25.5-8.7-29.7-21.5l-2.7-8.4h-20.7l-2.7,8.4c-4.2,12.8-16.2,21.5-29.7,21.5h-65.2
			c-10.2,0-19.8-5-25.6-13.3c-5.8-8.4-7.2-19.1-3.7-28.6L375,215.9c4.5-12.3,16.2-20.5,29.4-20.5H476c13.1,0,24.9,8.2,29.4,20.6
			l24.2,66.5c2.4-8.3,5.6-16.2,9.5-23.7c10.7-20.6,26.2-36.9,46.1-48.4c19.5-11.2,42.2-16.9,67.6-16.9c21.8,0,41.8,4.3,59.5,12.7
			c18.2,8.7,33.3,21.2,44.9,37.2c11.2,15.5,18.7,33.7,22.4,53.9c1.6,9.1-0.9,18.5-6.8,25.6c-0.8,0.9-1.6,1.8-2.5,2.6
			c6,5.7,9.7,13.7,9.7,22.7C780.1,350.2,779.9,352.4,779.5,354.4z"/>
		<path class="st0" d="M498.7,624c-3.7-9.9-4.1-21-0.4-31.2c2-5.5,5.1-10.7,9.6-15.4c8.9-9.2,20.2-13.3,31.5-13.3
			c18.2,0,36.1,10.9,42.8,28.7c1.8,4.7,2.8,10,2.8,15.6c0,5.5-1.1,10.7-3,15.6c-6.5,16.7-22.9,29-41.7,29.3h-0.7
			C519.7,653.3,504.8,640.3,498.7,624z"/>
		<path class="st0" d="M755.1,624c-3.7-9.9-4.1-21-0.4-31.2c2-5.5,5.1-10.7,9.6-15.4c8.9-9.2,20.2-13.3,31.5-13.3
			c18.2,0,36.2,10.9,42.9,28.7c1.8,4.7,2.8,10,2.8,15.6c0,5.5-1.1,10.7-3,15.6c-6.5,16.7-22.9,29-41.7,29.3h-0.7
			C776,653.3,761.1,640.3,755.1,624z"/>
		<path class="st0" d="M211.9,74.7H868c17.3,0,31.2,14,31.2,31.2v457.7c0,16-13,29-29,29h0c-2.6-12.5-8.5-24.1-17.1-33.7
			c9.7-5.3,16.2-15.6,16.2-27.4V135.8c0-17.2-14-31.2-31.2-31.2H241.8c-17.3,0-31.2,14-31.2,31.2v395.8c0,11.9,6.6,22.2,16.4,27.5
			c-8.4,9.7-14,21.3-16.5,33.6h-0.7c-16,0-29-13-29-29V106C180.7,88.7,194.7,74.7,211.9,74.7z"/>
		<path class="st0" d="M242,592.7c2-5.5,5.1-10.7,9.6-15.4c8.9-9.2,20.2-13.3,31.5-13.3c18.2,0,36.2,10.9,42.9,28.7
			c1.8,4.7,2.8,10,2.8,15.6c0,5.5-1.1,10.7-3,15.6c-6.5,16.7-22.9,29-41.7,29.3h-0.7c-20,0-34.9-13-40.9-29.3
			C238.7,614.1,238.3,602.9,242,592.7z"/>
		<path class="st0" d="M377.7,775.4h-95.8c-39.1,0-78.1,0-93.8,0c-8.6,0-9.2-0.9-7.3-9.2c9.8-42.3,47.4-74.8,90.7-79.9
			c3.9-0.5,7.8-0.7,11.7-0.7c0.2,0,0.3,0,0.5,0c11,0,21.6,1.7,31.7,5c21.8,6.9,40.9,20.9,54.1,39.2c6.7,9.2,11.8,19.5,15.2,30.6
			c0.5,1.5,0.9,3,1.2,4.5C388.6,774.8,388.2,775.4,377.7,775.4z"/>
		<path class="st0" d="M634,775.4h-95.8c-39.1,0-78.1,0-93.8,0c-8.6,0-9.2-0.9-7.2-9.2c0.5-2,1-4,1.6-6c3.3-11.1,8.5-21.4,15.3-30.6
			c11.2-15.4,26.6-27.7,44.2-35.4c9.3-4.1,19.3-6.8,29.6-8c0.2,0,0.4,0,0.6-0.1c3.9-0.4,7.8-0.6,11.6-0.6c3.8,0,7.6,0.2,11.3,0.6
			c10.6,1.1,20.8,3.9,30.3,8c17.7,7.7,33,20,44.2,35.5c6.7,9.2,11.8,19.5,15.2,30.6c0.5,1.5,0.9,3,1.2,4.5
			C644.9,774.8,644.6,775.4,634,775.4z"/>
		<path class="st0" d="M898.7,764.7c2.6,10.1,2.2,10.7-8.3,10.7h-95.8c-39.1,0-78.1,0-93.8,0c-8.6,0-9.2-0.9-7.3-9.2
			c0.5-2,1-4,1.6-6c3.3-11.1,8.5-21.4,15.3-30.6c13.3-18.2,32.4-32.1,54.1-39.1c6.4-2,13-3.5,19.7-4.3c4.1-0.5,8.2-0.7,12.2-0.7h0.2
			C844.7,685.6,887.1,719.1,898.7,764.7z"/>
	</g>
</g>
</svg>
